<?xml version="1.0" encoding="UTF-8" standalone="no"?>
<svg
   sodipodi:docname="gear.svg"
   id="svg4"
   version="1.1"
   viewBox="0 0 24 24"
   width="100%"
>
  <g
     transform="translate(12.277443,11.54666)"
  >
    <path
       d="m -4.5898437,-9.9570313 -1.7382813,1.0039063 -0.023437,0.4042969 c 0,0 -0.030436,0.5546487 -0.019531,1.2363281 0.010905,0.6816794 0.041126,1.4726701 0.2558593,2.140625 0.1053416,0.3276784 0.2805983,0.5183285 0.3808594,0.6425781 0.3944783,0.4888622 0.8040042,0.8193382 1.1386719,1.1113281 l -0.6621094,1.1484375 c -0.4203793,-0.1438853 -0.9109097,-0.3344899 -1.53125,-0.4316406 -0.1577259,-0.024698 -0.4115993,-0.08238 -0.7480469,-0.00977 -0.6858215,0.1480191 -1.384671,0.5182147 -1.9804687,0.8496094 -0.5957979,0.3313946 -1.0605469,0.6347656 -1.0605469,0.6347656 l -0.339844,0.2226563 v 2.0078124 l 0.339844,0.2226563 c 0,0 0.464749,0.303371 1.0605469,0.6347656 0.5957977,0.3313947 1.2946472,0.7015903 1.9804687,0.8496094 0.3364385,0.072613 0.5903021,0.014938 0.7480469,-0.00977 0.6203403,-0.097151 1.1108707,-0.2877553 1.53125,-0.4316406 l 0.6621094,1.1484375 C -4.9303708,3.7099587 -5.3398967,4.0404347 -5.734375,4.5292969 -5.8346353,4.6535457 -6.0098927,4.844196 -6.1152344,5.171875 -6.3299674,5.8398299 -6.3601892,6.6308206 -6.3710937,7.3125 c -0.010905,0.6816794 0.019531,1.2363281 0.019531,1.2363281 l 0.023437,0.4042969 1.7382813,1.0039063 0.3632812,-0.1816407 c 0,0 0.4951782,-0.2512793 1.0800781,-0.6015625 0.5849,-0.3502831 1.2535093,-0.7710744 1.7246094,-1.2910156 0.2311074,-0.2550673 0.3097141,-0.5033888 0.3671875,-0.6523438 0.22595532,-0.5856132 0.30500706,-1.1048898 0.390625,-1.5410156 h 1.328125 c 0.0856179,0.4361258 0.16466968,0.9554024 0.390625,1.5410156 0.057474,0.1489556 0.1360802,0.3972767 0.3671875,0.6523438 0.4711001,0.5199412 1.1397094,0.9407325 1.7246094,1.2910156 0.5848999,0.3502832 1.0800781,0.6015625 1.0800781,0.6015625 L 4.5898437,9.9570313 6.328125,8.953125 6.3515625,8.5488281 c 0,0 0.030436,-0.5546487 0.019531,-1.2363281 C 6.3601892,6.6308206 6.3299674,5.8398299 6.1152344,5.171875 6.0098928,4.8441966 5.8346361,4.6535465 5.734375,4.5292969 5.3398967,4.0404347 4.9303708,3.7099587 4.5957031,3.4179688 L 5.2578125,2.2695313 c 0.4203793,0.1438853 0.9109097,0.3344899 1.53125,0.4316406 0.1577483,0.024705 0.4116105,0.082378 0.7480469,0.00977 C 8.2229309,2.5629184 8.9217804,2.1927228 9.5175781,1.8613281 10.113376,1.5299335 10.578125,1.2265625 10.578125,1.2265625 l 0.339844,-0.2226563 v -2.0078124 l -0.339844,-0.2226563 c 0,0 -0.464749,-0.303371 -1.0605469,-0.6347656 -0.5957977,-0.3313947 -1.2946472,-0.7015903 -1.9804687,-0.8496094 -0.3364385,-0.072613 -0.5903021,-0.014938 -0.7480469,0.00977 -0.6203403,0.097151 -1.1108707,0.2877553 -1.53125,0.4316406 L 4.5957031,-3.4179688 C 4.9303708,-3.7099587 5.3398967,-4.0404347 5.734375,-4.5292969 5.8346353,-4.6535457 6.0098927,-4.844196 6.1152344,-5.171875 6.3299674,-5.8398299 6.3601892,-6.6308206 6.3710937,-7.3125 6.3819983,-7.9941794 6.3515625,-8.5488281 6.3515625,-8.5488281 L 6.328125,-8.953125 4.5898437,-9.9570313 4.2265625,-9.7753906 c 0,0 -0.4951782,0.2512793 -1.0800781,0.6015625 -0.5849,0.3502831 -1.2535093,0.7710744 -1.7246094,1.2910156 -0.2311074,0.2550673 -0.3097141,0.5033888 -0.3671875,0.6523438 -0.22595532,0.5856132 -0.30500706,1.1048898 -0.390625,1.5410156 h -1.328125 c -0.0856179,-0.4361258 -0.16466968,-0.9554024 -0.390625,-1.5410156 -0.057474,-0.1489556 -0.1360802,-0.3972767 -0.3671875,-0.6523438 -0.4711001,-0.5199412 -1.1397094,-0.9407325 -1.7246094,-1.2910156 -0.5848999,-0.3502832 -1.0800781,-0.6015625 -1.0800781,-0.6015625 z m 0.03125,1.7148438 c 0.1761862,0.093175 0.2931333,0.147364 0.6406249,0.3554688 0.5353643,0.3206173 1.159488,0.7630854 1.3847657,1.0117187 -0.019041,-0.021015 0.021905,0.037887 0.078125,0.1835938 0.1849124,0.4792413 0.4726562,1.8925781 0.4726562,1.8925781 l 0.1152344,0.609375 h 3.734375 l 0.1152344,-0.609375 c 0,0 0.2877438,-1.4133368 0.4726562,-1.8925781 0.05622,-0.1457076 0.097166,-0.2046093 0.078125,-0.1835938 0.2252777,-0.2486333 0.8494014,-0.6911014 1.3847657,-1.0117187 0.3474916,-0.2081048 0.4644387,-0.2622936 0.6406249,-0.3554688 l 0.3007813,0.1738281 c 0.0074,0.1992179 0.018194,0.3276091 0.011719,0.7324219 -0.00998,0.6239473 -0.08091,1.3856661 -0.1835937,1.7050781 0.00868,-0.027 -0.021064,0.038613 -0.1191406,0.1601563 -0.3225821,0.3997638 -1.4023438,1.3554687 -1.4023438,1.3554687 l -0.4726562,0.4042969 1.8671875,3.23242187 0.5859375,-0.20507812 c 0,0 1.3675211,-0.45763375 1.875,-0.53710935 0.1542873,-0.024162 0.2269303,-0.017457 0.1992187,-0.023437 0.3279617,0.070783 1.0230194,0.39003028 1.5683594,0.69335935 0.3541231,0.19697036 0.4601662,0.27098329 0.6289063,0.37695313 V 0.17382812 C 9.2492287,0.27979796 9.1431856,0.35381089 8.7890625,0.55078125 8.2437225,0.85411032 7.5486648,1.1733575 7.2207031,1.2441406 c 0.02771,-0.00598 -0.044935,7.247e-4 -0.1992187,-0.023437 -0.5074789,-0.079476 -1.875,-0.53710935 -1.875,-0.53710935 L 4.5605469,0.47851563 2.6933594,3.7109375 3.1660156,4.1152344 c 0,0 1.0797617,0.9557049 1.4023438,1.3554687 0.098077,0.1215426 0.1278202,0.1871554 0.1191406,0.1601563 0.1026841,0.319412 0.1736127,1.0811308 0.1835937,1.7050781 0.00648,0.4048128 -0.00432,0.533204 -0.011719,0.7324219 L 4.5585937,8.2421875 C 4.3824075,8.1490123 4.2654604,8.0948235 3.9179688,7.8867187 3.3826045,7.5661014 2.7584808,7.1236333 2.5332031,6.875 2.5522444,6.8960154 2.5112983,6.8371132 2.4550781,6.6914062 2.2701657,6.2121649 1.9824219,4.7988281 1.9824219,4.7988281 L 1.8671875,4.1894531 h -3.734375 l -0.1152344,0.609375 c 0,0 -0.2877438,1.4133368 -0.4726562,1.8925781 -0.05622,0.1457076 -0.097166,0.2046093 -0.078125,0.1835938 -0.2252777,0.2486333 -0.8494014,0.6911014 -1.3847657,1.0117187 -0.3474916,0.2081048 -0.4644387,0.2622936 -0.6406249,0.3554688 L -4.859375,8.0683594 c -0.0074,-0.1992179 -0.018194,-0.3276091 -0.011719,-0.7324219 0.00998,-0.6239473 0.08091,-1.3856661 0.1835937,-1.7050781 -0.00868,0.027 0.021064,-0.038613 0.1191406,-0.1601563 0.3225821,-0.3997638 1.4023438,-1.3554687 1.4023438,-1.3554687 L -2.6933594,3.7109375 -4.5605469,0.47851563 -5.1464844,0.68359375 c 0,0 -1.3675211,0.45763375 -1.875,0.53710935 -0.1542873,0.024162 -0.2269303,0.017457 -0.1992187,0.023437 C -7.5486648,1.1733575 -8.2437225,0.85411032 -8.7890625,0.55078125 -9.1431856,0.35381089 -9.2492287,0.27979796 -9.4179688,0.17382812 v -0.34765624 c 0.1687401,-0.10596984 0.2747832,-0.17998277 0.6289063,-0.37695313 0.54534,-0.30332907 1.2403977,-0.62257625 1.5683594,-0.69335935 -0.027721,0.00598 0.044912,-7.248e-4 0.1992187,0.023437 0.5074789,0.079476 1.875,0.53710935 1.875,0.53710935 l 0.5859375,0.20507812 1.8671875,-3.23242187 -0.4726562,-0.4042969 c 0,0 -1.0797617,-0.9557049 -1.4023438,-1.3554687 -0.098077,-0.1215426 -0.1278202,-0.1871554 -0.1191406,-0.1601563 -0.1026841,-0.319412 -0.1736127,-1.0811308 -0.1835937,-1.7050781 -0.00648,-0.4048128 0.00432,-0.533204 0.011719,-0.7324219 z"
    />
    <path
       d="m 0,-2.25 c -1.233756,0 -2.25,1.016244 -2.25,2.25 0,1.233756 1.016244,2.25 2.25,2.25 C 1.233756,2.25 2.25,1.233756 2.25,0 2.25,-1.233756 1.233756,-2.25 0,-2.25 Z m 0,1.5 c 0.42309662,0 0.75,0.32690338 0.75,0.75 0,0.42309662 -0.32690338,0.75 -0.75,0.75 -0.42309662,0 -0.75,-0.32690338 -0.75,-0.75 0,-0.42309662 0.32690338,-0.75 0.75,-0.75 z"
    />
  </g>
</svg>
