<svg width="100%" viewBox="0 0 24 24">
   <g transform="translate(-1.4999793,-0.5)">
      <path d="M 5.5 1.5 C 4.5955781 1.5 3.8521684 1.9572403 3.3457031 2.5117188 C 2.8392379 3.066197 2.5 3.7273953 2.5 4.5 L 2.5 19.5 C 2.5 20.302236 2.869026 20.970042 3.3828125 21.513672 C 3.896599 22.057302 4.6174687 22.5 5.5 22.5 L 12.5 22.5 C 13.25778 22.5 13.91868 22.177084 14.478516 21.673828 C 15.038351 21.170572 15.5 20.414815 15.5 19.5 L 15.5 14.5 L 13.5 14.5 L 13.5 19.5 C 13.5 19.730485 13.3747 19.975129 13.140625 20.185547 C 12.90655 20.395965 12.566573 20.5 12.5 20.5 L 5.5 20.5 C 5.3411067 20.5 5.0617938 20.377647 4.8359375 20.138672 C 4.6100812 19.899697 4.5 19.567339 4.5 19.5 L 4.5 4.5 C 4.5 4.4356716 4.6064387 4.0976155 4.8222656 3.8613281 C 5.0380925 3.6250407 5.2935946 3.5 5.5 3.5 L 12.5 3.5 C 12.923577 3.5 13.090479 3.632142 13.251953 3.8339844 C 13.413427 4.0358267 13.5 4.3603013 13.5 4.5 L 13.5 9.5 L 15.5 9.5 L 15.5 4.5 C 15.5 3.8632733 15.297693 3.1880347 14.814453 2.5839844 C 14.331213 1.9799341 13.497563 1.5 12.5 1.5 L 5.5 1.5 z M 18.207031 8.1679688 L 16.792969 9.5820312 L 18.085938 10.875 L 12.5 10.875 L 12.5 12.875 L 18.085938 12.875 L 16.792969 14.167969 L 18.207031 15.582031 L 21.207031 12.582031 A 1.0001 1.0001 0 0 0 21.207031 11.167969 L 18.207031 8.1679688 z " transform="translate(1.4999793,0.5)" />
   </g>
</svg>
