<svg
   width="100%"
   viewBox="0 0 24 24"
>
  <path
     d="M 3 2 A 1.0001 1.0001 0 0 0 2 3 L 2 9 L 4 9 L 4 5.4140625 L 10.585938 12 L 4 18.585938 L 4 15 L 2 15 L 2 21 A 1.0001 1.0001 0 0 0 3 22 L 9 22 L 9 20 L 5.4140625 20 L 12 13.414062 L 18.585938 20 L 15 20 L 15 22 L 21 22 A 1.0001 1.0001 0 0 0 22 21 L 22 15 L 20 15 L 20 18.585938 L 13.414062 12 L 20 5.4140625 L 20 9 L 22 9 L 22 3 A 1.0001 1.0001 0 0 0 21 2 L 15 2 L 15 4 L 18.585938 4 L 12 10.585938 L 5.4140625 4 L 9 4 L 9 2 L 3 2 z " />
</svg>
