<svg width="100%" viewBox="0 0 6.35 6.35">
  <path d="m 2.7206284,0.35333109 c -1.3041114,0 -2.36729731,1.06318601 -2.36729731,2.36729731 0,1.3041114 1.06318591,2.3652303 2.36729731,2.3652303 0.5622652,0 1.0793396,-0.1971342 1.4856976,-0.526066 L 5.7188949,6.0723619 6.0723618,5.7188949 4.5597926,4.206326 c 0.3289319,-0.4063579 0.526066,-0.9234323 0.526066,-1.4856976 0,-1.3041113 -1.0611188,-2.36729731 -2.3652302,-2.36729731 z m 0,0.50022786 c 1.0338916,0 1.8655191,0.83317795 1.8655191,1.86706945 0,1.0338917 -0.8316275,1.8655191 -1.8655191,1.8655191 -1.0338916,0 -1.86706941,-0.8316274 -1.86706941,-1.8655191 0,-1.0338915 0.83317781,-1.86706945 1.86706941,-1.86706945 z" />
</svg>