<svg
   width="100%"
   viewBox="0 0 24 24">
  <path
     d="M 12.000977,23.144531 C 5.8576326,23.144531 0.85449213,18.143343 0.85449213,12 c 0,-6.1433441 5.00314047,-11.14453106 11.14648487,-11.14453106 6.143344,0 11.144531,5.00118696 11.144531,11.14453106 0,6.143343 -5.001187,11.144531 -11.144531,11.144531 z m 0,-2 c 5.062466,0 9.144531,-4.082066 9.144531,-9.144531 0,-5.0624661 -4.082065,-9.1445311 -9.144531,-9.1445311 -5.0624663,0 -9.1464848,4.082065 -9.1464848,9.1445311 0,5.062465 4.0840185,9.144531 9.1464848,9.144531 z m -0.01367,-1.099609 -3.5312503,-3.529297 1.0625,-1.0625 1.7187503,1.71875 v -6.1875 a 0.750075,0.750075 0 0 1 1.136719,-0.642578 l 5,3 -0.773438,1.285156 -3.863281,-2.318359 v 4.863281 l 1.71875,-1.71875 1.0625,1.0625 z"
   />
</svg>
