<?xml version="1.0" encoding="UTF-8" standalone="no"?>
<svg
   width="100%"
   viewBox="0 0 24 24"
>
  <path
     d="M 12.000977,0.85546894 C 5.8576326,0.85546894 0.85449213,5.8566565 0.85449213,12 c 0,6.143344 5.00314047,11.144531 11.14648487,11.144531 6.143344,0 11.144531,-5.001187 11.144531,-11.144531 0,-6.1433435 -5.001187,-11.14453107 -11.144531,-11.14453106 z m 0,2.00000006 c 5.062466,0 9.144531,4.0820656 9.144531,9.144531 0,5.062466 -4.082065,9.144531 -9.144531,9.144531 -5.0624663,0 -9.1464848,-4.082065 -9.1464848,-9.144531 0,-5.0624654 4.0840185,-9.144531 9.1464848,-9.144531 z m -0.01367,1.0996093 -3.5312503,3.5292969 1.0625,1.0625 1.7187503,-1.71875 v 6.1874998 a 0.750075,0.750075 0 0 0 1.136719,0.642578 l 5,-3 -0.773438,-1.2851559 -3.863281,2.3183589 V 6.8281252 l 1.71875,1.71875 1.0625,-1.0625 z" />
</svg>
