<svg width="100%" viewBox="0 0 24 24">
   <path d="M 12.132812 5 L 6.1328125 10 L 2.1328125 10 L 2.1328125 15 L 6.1328125 15 L 12.132812 20 L 14.132812 20 L 14.132812 5 L 12.132812 5 z M 19.125 5.9121094 L 18.367188 6.5644531 C 21.57065 10.285937 21.59841 15.650876 18.435547 19.404297 L 19.201172 20.046875 C 22.670004 15.930355 22.638012 9.9931983 19.125 5.9121094 z M 17.15625 7.6796875 L 16.386719 8.3203125 C 18.631757 11.020426 18.652246 14.923058 16.435547 17.646484 L 17.210938 18.277344 C 19.725448 15.188031 19.702908 10.742556 17.15625 7.6796875 z M 15.361328 9.484375 L 14.591797 10.123047 C 15.968882 11.779273 15.982752 14.16932 14.623047 15.839844 L 15.398438 16.472656 C 17.055952 14.436245 17.04003 11.503356 15.361328 9.484375 z " />
</svg>
