<svg
  width="100%"
  viewBox="0 0 6.3499999 6.3500002"
>
  <g>
    <path
      d="M 0.74650296,2.9104167 C 1.900514,3.7119806 2.8492047,4.5593551 3.1277528,5.55625 3.6856643,4.0366431 4.6338097,2.647698 5.7735861,1.3229167 4.7984547,2.2213872 3.7725402,2.9838624 3.0805058,4.3679873 2.5823819,3.5258442 1.5082353,3.0102043 0.74650296,2.9104167 Z"
    />
    <path
      d="M 0.41796874,0.41796874 V 2.66486 C 0.49999354,2.570205 0.62394324,2.522875 0.74818115,2.5387695 0.88419047,2.5565865 1.0252862,2.5912085 1.1677938,2.6328205 V 1.1677938 H 5.181502 v 0.1565796 c 0.097162,-0.09211 0.1937208,-0.1879276 0.2909385,-0.2775025 0.067355,-0.061439 0.1548252,-0.09617 0.2459797,-0.0976684 0.075551,-0.001474 0.1497769,0.0199657 0.212907,0.0614949 V 0.41796874 Z M 5.9314209,1.6603637 C 5.6694461,1.968109 5.4182583,2.2784424 5.1815957,2.5926066 V 5.1815957 H 3.6349201 C 3.5626384,5.348325 3.4940573,5.5159547 3.4318318,5.6854409 3.3066265,6.0254956 2.8194415,6.0067306 2.7207641,5.6580526 2.6761321,5.4983186 2.6017311,5.3397779 2.5135416,5.1815957 H 1.1678874 V 3.7243205 C 0.95404232,3.5538976 0.72762096,3.3844941 0.48627522,3.2168578 0.4610681,3.1990784 0.43815658,3.1782498 0.41806233,3.1548461 V 5.9314209 H 5.9314209 Z"
    />
  </g>
</svg>