<svg viewBox="0 0 6.3499999 6.3500002">
   <path d="M 4.6324598,0.29360596 C 4.5057035,0.29372097 4.3823542,0.34379032 4.2996635,0.42383056 L 4.0428316,0.67239421 5.5057915,2.1224349 5.7987969,1.8289127 c 0.1302263,-0.1302263 0.1933889,-0.3631662 0,-0.5565551 L 4.9502699,0.42383056 C 4.8587238,0.33228451 4.7443034,0.29350449 4.6324598,0.29360596 Z M 3.834059,0.90132081 3.5100476,1.2201644 4.956471,2.6903589 5.2804821,2.3715153 Z M 3.2589003,1.4237695 0.81408822,3.8551456 0.30662567,5.6276472 C 0.26011766,5.7901234 0.41886722,5.921294 0.58361135,5.87156 L 2.329758,5.3444605 4.7544161,2.9260033 4.4448742,2.6231795 2.0465711,4.9816919 1.103993,5.2715967 0.89315316,5.0741926 1.2161309,4.0530663 3.5550061,1.7136743 Z m 0.5203815,0.5270996 -2.385384,2.444812 H 1.799041 V 4.7677514 L 4.1978611,2.3694482 Z" />
</svg>
