<svg width="100%" viewBox="0 0 24 24">
   <path d="M 8.3789062,6.2402344 C 5.4159534,6.2402344 3,8.6581408 3,11.621094 c 0,2.486535 1.7016367,4.587763 4,5.199218 V 19 l 5,-3 -5,-3 v 1.712891 C 5.8140644,14.192682 5,13.016579 5,11.621094 5,9.7315452 6.4893579,8.2402344 8.3789062,8.2402344 H 15.621094 C 17.510642,8.2402344 19,9.7315452 19,11.621094 19,13.510642 17.510642,15 15.621094,15 h -1.548828 v 2 h 1.548828 C 18.584047,17 21,14.584047 21,11.621094 21,8.6581408 18.584047,6.2402344 15.621094,6.2402344 Z" />
</svg>
