<svg
   width="100%"
   viewBox="0 0 24 24"
>
  <path
     d="M 13.5,12 A 1.5,1.5 0 0 1 12,13.5 1.5,1.5 0 0 1 10.5,12 1.5,1.5 0 0 1 12,10.5 1.5,1.5 0 0 1 13.5,12 Z" />
  <path
     d="M 11.726563,1.3691406 C 9.8789336,1.4137359 8.0451247,1.9502429 6.46875,2.9160156 6.6997689,3.281253 6.9264698,3.6617953 7.1601562,4.0175781 8.5375966,3.1750956 10.138803,2.7107696 11.751953,2.667965 c -0.01165,-0.429412 0.0023,-0.8857859 -0.02539,-1.2988244 z m 5.322265,1.2695313 c -0.195839,0.3823114 -0.423103,0.7786569 -0.599622,1.1523406 1.419536,0.7737248 2.63579,1.9174313 3.486332,3.2929688 0.367838,-0.2291667 0.735677,-0.4583333 1.103515,-0.6875 C 20.065744,4.8252527 18.675351,3.5164187 17.048828,2.6386719 Z M 2.6875,6.8632812 C 1.7899154,8.4775607 1.3346248,10.331826 1.3671875,12.177734 1.8007813,12.172526 2.234375,12.167317 2.6679688,12.162109 2.6367596,10.542315 3.0354218,8.9149094 3.8222656,7.4980472 3.4440104,7.2864585 3.0657552,7.0748699 2.6875,6.8632812 Z m 19.939453,4.7714848 c -0.432943,0.01628 -0.865885,0.03255 -1.298828,0.04883 0.06268,1.727469 -0.368125,3.46939 -1.232422,4.966795 0.378255,0.211588 0.756511,0.423177 1.134766,0.634765 0.918262,-1.596643 1.40465,-3.435983 1.404339,-5.277343 -0.463285,-0.0045 -0.860248,-0.0091 -0.169258,-0.01358 0.280402,0.07545 0.134774,-0.198285 0.161403,-0.359463 z M 3.984375,16.783203 c -0.3730469,0.220703 -0.7460937,0.441406 -1.1191406,0.662109 0.9446544,1.588191 2.3130475,2.920855 3.9238282,3.826164 0.2115885,-0.378255 0.4231771,-0.75651 0.6347656,-1.134765 C 6.0123085,19.342638 4.8126723,18.175204 3.984375,16.783203 Z m 12.726562,3.275391 c -1.396371,0.82476 -3.013999,1.263665 -4.634765,1.275478 0.0059,0.432943 0.01172,0.865885 0.01758,1.298828 1.846405,-0.01181 3.68857,-0.516642 5.279299,-1.455169 -0.220705,-0.373046 -0.441409,-0.746091 -0.662114,-1.119137 z"
  />
</svg>
