<svg
   width="100%"
   viewBox="0 0 24 24"
>
  <path
     d="M 6.6894531 1.25 L 1.25 6.6894531 L 1.25 7 L 1.25 22.75 L 22.75 22.75 L 22.75 1.25 L 6.6894531 1.25 z M 7.3105469 2.75 L 8.25 2.75 L 8.25 9.75 L 19.75 9.75 L 19.75 2.75 L 21.25 2.75 L 21.25 21.25 L 19.75 21.25 L 19.75 12.25 L 4.25 12.25 L 4.25 21.25 L 2.75 21.25 L 2.75 7.3125 L 7.3105469 2.75 z M 9.75 2.75 L 18.25 2.75 L 18.25 8.25 L 9.75 8.25 L 9.75 2.75 z M 5.75 13.75 L 18.25 13.75 L 18.25 21.25 L 5.75 21.25 L 5.75 13.75 z " />
</svg>
